<?xml version="1.0" standalone="no"?>
<!DOCTYPE svg PUBLIC "-//W3C//DTD SVG 20010904//EN"
 "http://www.w3.org/TR/2001/REC-SVG-20010904/DTD/svg10.dtd">
<svg version="1.0" xmlns="http://www.w3.org/2000/svg"
 width="600.000000pt" height="600.000000pt" viewBox="0 0 600.000000 600.000000"
 preserveAspectRatio="xMidYMid meet">
<metadata>
Created by potrace 1.14, written by Peter Selinger 2001-2017
</metadata>
<g transform="translate(0.000000,600.000000) scale(0.100000,-0.100000)"
fill="#000000" stroke="none">
<path d="M2867 3865 c-41 -11 -119 -47 -167 -77 -13 -8 -27 -3 -63 25 -48 37
-101 54 -134 43 -10 -3 -31 -17 -47 -31 -16 -14 -41 -25 -56 -25 -37 0 -92
-39 -101 -73 -20 -74 32 -251 90 -307 l36 -35 -11 -50 c-17 -69 -17 -220 0
-280 25 -96 77 -171 149 -213 15 -9 26 -20 25 -23 -2 -4 -31 -28 -65 -53 -75
-55 -101 -89 -83 -111 6 -8 9 -22 6 -32 -8 -27 7 -44 45 -52 34 -7 34 -7 37
-66 3 -72 37 -244 57 -292 13 -30 12 -35 0 -40 -28 -10 -15 -31 23 -37 64 -12
633 -16 712 -5 100 13 103 14 90 39 -7 14 -8 25 -2 33 22 27 61 221 65 326 2
31 6 36 37 44 39 10 52 24 44 49 -3 9 1 26 8 37 11 18 9 24 -17 51 -16 17 -53
47 -82 67 -51 35 -65 53 -43 53 21 0 112 95 135 140 12 25 28 69 34 98 14 67
13 201 -3 267 l-11 50 36 35 c60 58 114 248 90 313 -12 32 -65 67 -102 67 -14
0 -39 11 -55 25 -16 14 -40 28 -52 32 -34 8 -97 -13 -136 -47 -18 -17 -36 -30
-39 -30 -4 0 -29 13 -56 29 -111 66 -274 89 -394 56z m363 -1675 c0 -5 -5 -10
-11 -10 -5 0 -7 5 -4 10 3 6 8 10 11 10 2 0 4 -4 4 -10z"/>
</g>
</svg>
