<?xml version="1.0" standalone="no"?>
<!DOCTYPE svg PUBLIC "-//W3C//DTD SVG 20010904//EN"
 "http://www.w3.org/TR/2001/REC-SVG-20010904/DTD/svg10.dtd">
<svg version="1.0" xmlns="http://www.w3.org/2000/svg"
 width="640.000000pt" height="640.000000pt" viewBox="0 0 640.000000 640.000000"
 preserveAspectRatio="xMidYMid meet">
<metadata>
Created by potrace 1.14, written by Peter Selinger 2001-2017
</metadata>
<g transform="translate(0.000000,640.000000) scale(0.100000,-0.100000)"
fill="#000000" stroke="none">
<path d="M1449 6305 c-2 -1 -35 -6 -74 -10 -38 -3 -81 -8 -95 -10 -14 -2 -38
-6 -55 -9 -186 -29 -422 -105 -590 -188 -110 -55 -255 -146 -255 -159 0 -5 -5
-9 -11 -9 -6 0 -43 -33 -83 -72 -187 -187 -267 -370 -268 -613 0 -125 2 -147
26 -316 15 -98 89 -360 127 -447 32 -72 117 -242 144 -289 l24 -41 -37 -79
c-21 -43 -53 -116 -72 -163 -18 -47 -36 -94 -41 -105 -16 -39 -68 -211 -89
-293 -44 -178 -68 -313 -88 -507 -14 -144 -7 -566 12 -671 2 -11 7 -41 10 -69
4 -27 9 -61 12 -75 3 -23 6 -36 18 -88 46 -201 108 -376 194 -549 45 -90 150
-267 181 -305 6 -7 39 -49 73 -93 162 -206 398 -408 668 -571 79 -48 316 -164
385 -189 28 -10 55 -22 60 -26 10 -7 248 -88 275 -94 8 -2 35 -9 60 -16 25 -7
50 -13 55 -15 6 -1 48 -11 95 -22 121 -29 173 -40 275 -56 126 -21 156 -25
217 -31 29 -3 62 -7 73 -9 140 -27 846 -28 1035 -1 14 2 54 7 90 10 36 4 72 8
80 10 8 2 51 8 95 15 44 7 89 14 100 16 11 2 34 7 50 10 17 3 71 14 120 25 50
12 97 22 105 24 8 2 63 17 123 34 213 63 385 129 567 221 166 84 157 78 310
179 536 352 898 905 1006 1536 8 49 17 101 19 114 20 116 27 510 13 682 -31
362 -138 756 -294 1083 -28 59 -28 59 -9 90 72 122 170 328 177 374 2 9 6 20
11 23 4 3 10 16 12 30 3 13 9 35 14 49 13 34 59 225 67 275 3 22 7 51 10 65
18 107 24 291 11 386 -8 59 -51 193 -77 239 -10 18 -24 43 -32 56 -43 76 -135
178 -243 269 -69 58 -230 151 -335 194 -36 15 -74 31 -85 36 -90 41 -349 107
-490 125 -27 4 -77 10 -110 15 -64 9 -403 6 -445 -3 -14 -3 -42 -8 -63 -11
-21 -3 -75 -18 -120 -33 -154 -51 -292 -170 -362 -312 -15 -31 -31 -63 -36
-71 -5 -8 -12 -23 -15 -32 -5 -14 -14 -16 -43 -12 -20 3 -43 7 -51 10 -18 6
-147 31 -205 39 -23 3 -50 7 -60 9 -67 13 -229 20 -425 20 -226 0 -290 -4
-460 -29 -86 -13 -106 -16 -194 -35 -49 -11 -90 -19 -91 -17 0 1 -16 34 -34
72 -141 297 -368 413 -807 414 -84 0 -153 -2 -155 -4z"/>
</g>
</svg>
